#!OML:ASF E:/inclinewalkrobotboard/Project1/Captureday1/Session1/subject1.ASF
:FULLY-SPECIFIED
:DEGREES
138
root 0 0 0 2.0811906548332795 1.224404250244202 -1.01847799519859
lowerback 10.98889090344783 -0.295287185949057 -2.28826781464715
upperback 2.006751920658061 -0.6943917977683316 1.1015952562967801
thorax -3.937212064504676 -0.2540005231578599 2.419604442443216
lowerneck -6.568676549494313 -1.9703689122460508 -0.17379286959027795
upperneck 24.50914267138981 -3.056277861806044 2.379865679453055
head 9.24835228650943 -1.2780950016326542 0.5889507768536631
rclavicle 5.153452582095123E-15 2.687411625715758E-15
rhumerus -8.338113766258333 13.814579093678677 -50.8464732976729
rradius 106.57546438884444
rwrist -42.521464780646205
rhand -4.105586713676026 -54.63390334300037
rfingers 7.125020000000007
rthumb 21.66234324112162 -83.24512438493105
lclavicle 1.7742864039823412E-15 3.855655848022884E-15
lhumerus -44.47425952897309 -7.528072857111904 85.39384633237401
lradius 61.862167430624886
lwrist 7.1958446503103595
lhand -11.69249890260953 -28.956233922584723
lfingers 7.125020000000018
lthumb 14.36104410134711 0.6024620366145008
rfemur 1.2207031826011798 -0.5324339231137336 -2.9976398386107928
rtibia -4.626087528139081
rfoot 0.9131960026780863 0.6552388473116157
rtoes -0.7460464925807815
lfemur 0.8601596068793897 -6.442769655440877 -10.185675239725278
ltibia 22.312463180570784
lfoot -28.196876592897468 14.335648242499378
ltoes -60.05976968270964
139
root 0 0 0 2.082549584206785 1.2260961547326752 -1.01747433068982
lowerback 10.988287673451818 -0.295782483797259 -2.288872815798717
upperback 2.0045474812439363 -0.6951411591653829 1.1011951166188627
thorax -3.9392424503642487 -0.2543815488816701 2.419540397219717
lowerneck -6.573353804969842 -1.9701558310744707 -0.17435859412822574
upperneck 24.511709438731316 -3.056089169712852 2.37883373265162
head 9.250023942746173 -1.277987885057696 0.5886325706739238
rclavicle 5.1809320743564086E-15 2.649231359092362E-15
rhumerus -8.315848293835764 13.807576061936476 -50.832594384507786
rradius 106.57736185193176
rwrist -42.53221167688117
rhand -4.100330976041134 -54.643063938967956
rfingers 7.125020000000007
rthumb 21.667425702156528 -83.25502844371812
lclavicle 1.8071118092156107E-15 3.841083563933068E-15
lhumerus -44.480691446138394 -7.5245638699675235 85.38851327345462
lradius 61.86362485009507
lwrist 7.194866181364338
lhand -11.691267084110326 -28.95901910018415
lfingers 7.125020000000018
lthumb 14.362187246007005 0.600243825753612
rfemur 1.2186635873727516 -0.5320886191932823 -2.996228294212928
rtibia -4.623703759851782
rfoot 0.912668993995795 0.6545680688048576
rtoes -0.7460356920972566
lfemur 0.8685919259661228 -6.448249346489879 -10.189393331115195
ltibia 22.309983060199052
lfoot -28.19726430361213 14.336272175974695
ltoes -60.049225610279365
140
root 0 0 0 2.082491785328486 1.226148345673097 -1.016780732304675
lowerback 10.987889887495092 -0.29613795557085043 -2.2893041396759743
upperback 2.0032325691603714 -0.6956668522297536 1.1012189300447188
thorax -3.9404444533208824 -0.25462707068698387 2.4198645118734903
lowerneck -6.575803866672646 -1.9698861078590868 -0.1744238228694034
upperneck 24.51335629285851 -3.0556851716185376 2.377995249751657
head 9.251011235132346 -1.2778150612918968 0.5883591745958694
rclavicle 5.191215826509019E-15 2.6445374395415995E-15
rhumerus -8.31443369196709 13.799300763099744 -50.828033744849805
rradius 106.57255660255342
rwrist -42.535616462712845
rhand -4.098877524861713 -54.646927404261966
rfingers 7.125020000000007
rthumb 21.668822227653358 -83.25887485736996
lclavicle 1.820237283699273E-15 3.834022002352391E-15
lhumerus -44.4833772774523 -7.522543504816815 85.3867601270049
lradius 61.863082064027985
lwrist 7.193518244231516
lhand -11.690576170818858 -28.96038115847235
lfingers 7.125020000000018
lthumb 14.362915423934217 0.5988990283651319
rfemur 1.2195052812785692 -0.5324479429714524 -2.9980509608215744
rtibia -4.626249192081918
rfoot 0.9133521971602168 0.6550325150502423
rtoes -0.7463128117821289
lfemur 0.8715318439480333 -6.450523058810684 -10.191730100349929
ltibia 22.3091264045204
lfoot -28.196483040195517 14.335560631670543
ltoes -60.04005227576902
141
root 0 0 0 2.081581693595356 1.2256248330522825 -1.0160172680802275
lowerback 10.986008786009139 -0.2964691301364527 -2.2897394050058066
upperback 2.0016217778313097 -0.696148633731623 1.1014323716903327
thorax -3.941141338080258 -0.25483860963457383 2.4204340829922817
lowerneck -6.578234921096289 -1.9695286668407275 -0.17457968004426916
upperneck 24.517029863881696 -3.05520345425598 2.3775400597673393
head 9.252631100987237 -1.2775707360175228 0.58821444181854
rclavicle 5.194412690789998E-15 2.638120853711133E-15
rhumerus -8.315851835969681 13.791404517644718 -50.82585113904112
rradius 106.56313252754202
rwrist -42.53991007172556
rhand -4.09681735610538 -54.65037433869664
rfingers 7.125020000000007
rthumb 21.67079774908605 -83.26217370015502
lclavicle 1.8228636958425515E-15 3.827220388358483E-15
lhumerus -44.48460848275486 -7.5214470021303725 85.38602627423722
lradius 61.86258740583271
lwrist 7.192730745260311
lhand -11.6902305727763 -28.96112520746617
lfingers 7.125020000000018
lthumb 14.363264598815913 0.5981529184674663
rfemur 1.2198299566746504 -0.5326978149484307 -2.998881711962115
rtibia -4.626773308246943
rfoot 0.9139739755749474 0.6553265046733379
rtoes -0.7462031465292414
lfemur 0.8721654656798696 -6.4506197389164655 -10.19329849729735
ltibia 22.309963988920373
lfoot -28.194418709589073 14.333690711347657
ltoes -60.03298323437806
142
root 0 0 0 2.080825703668867 1.2251851538268763 -1.0154480175397107
lowerback 10.98460094155155 -0.29669675367935155 -2.2900581749206204
upperback 2.0005138024561466 -0.6964797371074276 1.1016124421103137
thorax -3.9415574369263515 -0.25498120289054904 2.4208783372535
lowerneck -6.579922049063208 -1.9692768682996347 -0.17471628415083384
upperneck 24.52003725490134 -3.0548679230451183 2.377262418145788
head 9.253902726589994 -1.2773956494909031 0.5881258976243608
rclavicle 5.196842629021513E-15 2.6356743470174014E-15
rhumerus -8.319298724746544 13.78491311871877 -50.82597998530835
rradius 106.55359248295922
rwrist -42.541466268833226
rhand -4.095410310768095 -54.65278148624865
rfingers 7.125020000000007
rthumb 21.672140691960834 -83.26445513838569
lclavicle 1.8244843022987865E-15 3.824685611655406E-15
lhumerus -44.48496009046952 -7.521015012454487 85.38585892816565
lradius 61.862233590788875
lwrist 7.192380520174973
lhand -11.690119126199601 -28.96127262061752
lfingers 7.125020000000018
lthumb 14.363373831794291 0.5979940077398638
rfemur 1.2198351315908829 -0.5328044311760474 -2.9990516882675546
rtibia -4.6264243795713895
rfoot 0.9142958285441392 0.6554290404906893
rtoes -0.7460131084530024
lfemur 0.8722777938908353 -6.450151462144811 -10.194223428774212
ltibia 22.310874302681633
lfoot -28.192874869282214 14.33219642993308
ltoes -60.028826942952385
143
root 0 0 0 2.0807308715589095 1.2241411664888449 -1.0180581042940524
lowerback 10.987769278426004 -0.2954522005049188 -2.2884796691181757
upperback 2.005882385620137 -0.6946296461605206 1.10172289750564
thorax -3.937523601714496 -0.2541025465636094 2.4199116931261178
lowerneck -6.570057296302309 -1.9701800519775439 -0.17393722289905866
upperneck 24.51188795019406 -3.0560394242652302 2.3796489606852043
head 9.249490021405334 -1.2779639874665492 0.5888814751690703
rclavicle 5.1549877334437685E-15 2.6868135746864035E-15
rhumerus -8.34408738261169 13.809899076306124 -50.849673428192
rradius 106.56507441821535
rwrist -42.51992525741288
rhand -4.10477462577286 -54.63497175253359
rfingers 7.125020000000007
rthumb 21.66311435305962 -83.24613006107546
lclavicle 1.774959743136746E-15 3.8552836631781714E-15
lhumerus -44.473953361942016 -7.528008367944701 85.39414954285976
lradius 61.86169321169677
lwrist 7.195660198163912
lhand -11.692531425844347 -28.95600082899061
lfingers 7.125020000000018
lthumb 14.361004627401519 0.6026829018510362
rfemur 1.2204973788293438 -0.5324321544609365 -2.9973958611595837
rtibia -4.625340704895898
rfoot 0.9132662576881216 0.655201113398943
rtoes -0.7458762487617927
lfemur 0.8604979916280735 -6.44261024453975 -10.186200660067733
ltibia 22.312821740843397
lfoot -28.196245868667248 14.334950419752863
ltoes -60.05765936978039
144
root 0 0 0 2.0822514588947367 1.2259357875447443 -1.0171910295039615
lowerback 10.98742496949875 -0.29588875052509744 -2.289007820675897
upperback 2.0039395067668635 -0.6952937533047587 1.1012833293246047
thorax -3.9394150018471725 -0.2544459080572168 2.4197462505961744
lowerneck -6.574314385563469 -1.9700297563362925 -0.1744820982388997
upperneck 24.513853663963083 -3.055940246222624 2.3787200553965944
head 9.2508936203941 -1.2778999288617454 0.588597118863027
rclavicle 5.181983569116164E-15 2.6490196078460033E-15
rhumerus -8.320717039995527 13.804407671082231 -50.83548410498122
rradius 106.56939854180234
rwrist -42.53065517030473
rhand -4.099793796571474 -54.64363397827574
rfingers 7.125020000000007
rthumb 21.667935207912024 -83.25555839470218
lclavicle 1.807553384157609E-15 3.841094251405633E-15
lhumerus -44.480378546362395 -7.5245783036178455 85.38877168667766
lradius 61.86328750157172
lwrist 7.194790568467312
lhand -11.691331274783463 -28.95875225210712
lfingers 7.125020000000018
lthumb 14.362118418311548 0.6005015043962594
rfemur 1.2184641970888892 -0.5320594824128388 -2.995945821511862
rtibia -4.623064035377414
rfoot 0.9126554128227848 0.6545058323626116
rtoes -0.7459175143734853
lfemur 0.8688987222137454 -6.4481985340815875 -10.18970724010747
ltibia 22.31013572769526
lfoot -28.19698128534801 14.335914581736647
ltoes -60.04805811931622
145
root 0 0 0 2.082311522789265 1.2260586871069137 -1.0165955781201106
lowerback 10.987245531690164 -0.2962041749990131 -2.2893853286716714
upperback 2.002819935553883 -0.6957613387281305 1.1012780989823674
thorax -3.9405273847887297 -0.25466614627008566 2.419997302885055
lowerneck -6.576460089398014 -1.9698037454456199 -0.1745250817526347
upperneck 24.515006671780426 -3.055595793732711 2.3779414909534684
head 9.251667225412124 -1.2777572399350103 0.588343104846235
rclavicle 5.191961977821094E-15 2.6444707839289336E-15
rhumerus -8.318255806271571 13.797219407006352 -50.83048055641058
rradius 106.56662146001946
rwrist -42.53420871241795
rhand -4.098533200114465 -54.64718936659344
rfingers 7.125020000000007
rthumb 21.669148531933374 -83.25911327413735
lclavicle 1.8205870203539217E-15 3.834121584609684E-15
lhumerus -44.4831177704569 -7.522571767681315 85.38696018776544
lradius 61.86283295501828
lwrist 7.193481082431827
lhand -11.690638134099729 -28.960148479761063
lfingers 7.125020000000018
lthumb 14.362850491847112 0.5991249265730936
rfemur 1.2193525084006298 -0.5324167803982429 -2.9978209719899613
rtibia -4.625789359311064
rfoot 0.9133153794590374 0.6549765413856004
rtoes -0.7462386329904038
lfemur 0.8718255563434587 -6.450568873090267 -10.191931520942166
ltibia 22.30914164405966
lfoot -28.196399754734436 14.335410328018387
ltoes -60.03937121311894
